{
	"asset":{
		"generator":"Khronos glTF Blender I/O v3.6.28",
		"version":"2.0"
	},
	"extensionsUsed":[
		"KHR_materials_specular",
		"KHR_materials_ior"
	],
	"scene":0,
	"scenes":[
		{
			"name":"Scene",
			"nodes":[
				0
			]
		}
	],
	"nodes":[
		{
			"mesh":0,
			"name":"face6",
			"rotation":[
				0.7071068286895752,
				0,
				0,
				0.7071068286895752
			]
		}
	],
	"materials":[
		{
			"doubleSided":true,
			"extensions":{
				"KHR_materials_specular":{
					"specularColorFactor":[
						0,
						0,
						0
					]
				},
				"KHR_materials_ior":{
					"ior":1.4500000476837158
				}
			},
			"name":"textured_0",
			"pbrMetallicRoughness":{
				"baseColorTexture":{
					"index":0
				},
				"metallicFactor":0
			}
		}
	],
	"meshes":[
		{
			"name":"face6",
			"primitives":[
				{
					"attributes":{
						"POSITION":0,
						"NORMAL":1,
						"TEXCOORD_0":2
					},
					"indices":3,
					"material":0
				}
			]
		}
	],
	"textures":[
		{
			"sampler":0,
			"source":0
		}
	],
	"images":[
		{
			"bufferView":4,
			"mimeType":"image/jpeg",
			"name":"face6_textured_0"
		}
	],
	"accessors":[
		{
			"bufferView":0,
			"componentType":5126,
			"count":22966,
			"max":[
				0.19601599872112274,
				0.2583700120449066,
				0.08052000403404236
			],
			"min":[
				-0.1283240169286728,
				-0.22634899616241455,
				-0.4375469982624054
			],
			"type":"VEC3"
		},
		{
			"bufferView":1,
			"componentType":5126,
			"count":22966,
			"type":"VEC3"
		},
		{
			"bufferView":2,
			"componentType":5126,
			"count":22966,
			"type":"VEC2"
		},
		{
			"bufferView":3,
			"componentType":5123,
			"count":129330,
			"type":"SCALAR"
		}
	],
	"bufferViews":[
		{
			"buffer":0,
			"byteLength":275592,
			"byteOffset":0,
			"target":34962
		},
		{
			"buffer":0,
			"byteLength":275592,
			"byteOffset":275592,
			"target":34962
		},
		{
			"buffer":0,
			"byteLength":183728,
			"byteOffset":551184,
			"target":34962
		},
		{
			"buffer":0,
			"byteLength":258660,
			"byteOffset":734912,
			"target":34963
		},
		{
			"buffer":0,
			"byteLength":283303,
			"byteOffset":993572
		}
	],
	"samplers":[
		{
			"magFilter":9729,
			"minFilter":9987
		}
	],
	"buffers":[
		{
			"byteLength":1276876,
			"uri":"data:application/octet-stream;base64,"
		}
	]
}
